<?xml version="1.0" encoding="utf-8"?>
<!-- Generator: Adobe Illustrator 25.0.0, SVG Export Plug-In . SVG Version: 6.00 Build 0)  -->
<svg version="1.1" id="Layer_1" xmlns="http://www.w3.org/2000/svg" xmlns:xlink="http://www.w3.org/1999/xlink" x="0px" y="0px"
	 viewBox="0 0 500 500" style="enable-background:new 0 0 500 500;" xml:space="preserve">
<style type="text/css">
	.st0{fill:#996633;}
</style>
<path class="st0" d="M250,193.3c-31.3,0-56.7,25.4-56.7,56.7s25.4,56.7,56.7,56.7s56.7-25.4,56.7-56.7
	C306.7,218.7,281.3,193.3,250,193.3z"/>
<path class="st0" d="M316.7,105.5H183.3c-42.9,0-77.7,34.8-77.8,77.8v133.5c0,42.9,34.8,77.7,77.8,77.8h133.5
	c42.9,0,77.7-34.8,77.8-77.8V183.3C394.5,140.3,359.7,105.5,316.7,105.5z M250,336.7c-47.9,0-86.7-38.8-86.7-86.7
	c0-47.9,38.8-86.7,86.7-86.7c47.9,0,86.7,38.8,86.7,86.7C336.6,297.9,297.9,336.6,250,336.7z M345.3,176.4
	c-11.8,0-21.4-9.6-21.4-21.4c0-11.8,9.6-21.4,21.4-21.4c11.8,0,21.4,9.6,21.4,21.4C366.7,166.8,357.1,176.4,345.3,176.4
	C345.3,176.4,345.3,176.4,345.3,176.4L345.3,176.4z"/>
</svg>
