<?xml version="1.0" encoding="utf-8"?>
<!-- Generator: Adobe Illustrator 25.0.0, SVG Export Plug-In . SVG Version: 6.00 Build 0)  -->
<svg version="1.1" id="Layer_1" xmlns:serif="http://www.serif.com/"
	 xmlns="http://www.w3.org/2000/svg" xmlns:xlink="http://www.w3.org/1999/xlink" x="0px" y="0px" viewBox="0 0 360 640"
	 style="enable-background:new 0 0 360 640;" xml:space="preserve">
<style type="text/css">
	.st0{fill-rule:evenodd;clip-rule:evenodd;fill:#996633;}
</style>
<path class="st0" d="M316,140c24.3,0,44,19.7,44,44v272c0,24.3-19.7,44-44,44h-74.9V364.4H288l8.9-58.1h-55.7v-37.7
	c0-15.9,7.8-31.4,32.8-31.4h25.3v-49.5c0,0-23-3.9-45-3.9c-45.9,0-75.9,27.8-75.9,78.2v44.3h-51v58.1h51V500H44
	c-24.3,0-44-19.7-44-44V184c0-24.3,19.7-44,44-44L316,140L316,140z"/>
</svg>
